<svg xmlns="http://www.w3.org/2000/svg" viewBox="0 0 1200 800">
  <defs>
    <linearGradient id="bg" x1="0" y1="0" x2="1" y2="1">
      <stop offset="0%" stop-color="#04111f"/>
      <stop offset="100%" stop-color="#0a2540"/>
    </linearGradient>
    <filter id="gblur">
      <feGaussianBlur stdDeviation="45"/>
    </filter>
  </defs>
  <rect width="1200" height="800" fill="url(#bg)"/>
  <!-- Glow -->
  <circle cx="600" cy="400" r="320" fill="#0066cc" opacity="0.1" filter="url(#gblur)"/>
  <circle cx="900" cy="250" r="180" fill="#00B4D8" opacity="0.08" filter="url(#gblur)"/>
  <!-- Subtle grid -->
  <g stroke="white" stroke-width="1" opacity="0.04">
    <line x1="0" y1="100" x2="1200" y2="100"/><line x1="0" y1="200" x2="1200" y2="200"/>
    <line x1="0" y1="300" x2="1200" y2="300"/><line x1="0" y1="400" x2="1200" y2="400"/>
    <line x1="0" y1="500" x2="1200" y2="500"/><line x1="0" y1="600" x2="1200" y2="600"/>
    <line x1="0" y1="700" x2="1200" y2="700"/>
    <line x1="150" y1="0" x2="150" y2="800"/><line x1="300" y1="0" x2="300" y2="800"/>
    <line x1="450" y1="0" x2="450" y2="800"/><line x1="600" y1="0" x2="600" y2="800"/>
    <line x1="750" y1="0" x2="750" y2="800"/><line x1="900" y1="0" x2="900" y2="800"/>
    <line x1="1050" y1="0" x2="1050" y2="800"/>
  </g>
  <!-- Component connection lines (dashed) -->
  <g stroke="#00B4D8" stroke-width="1.5" stroke-dasharray="6 8" opacity="0.3">
    <!-- Row 1 connections -->
    <line x1="378" y1="145" x2="502" y2="145"/>
    <line x1="678" y1="145" x2="802" y2="145"/>
    <!-- Row 2 connections -->
    <line x1="378" y1="345" x2="502" y2="345"/>
    <line x1="678" y1="345" x2="802" y2="345"/>
    <!-- Row 3 connections -->
    <line x1="378" y1="545" x2="502" y2="545"/>
    <line x1="678" y1="545" x2="802" y2="545"/>
    <!-- Column connections -->
    <line x1="240" y1="218" x2="240" y2="282"/>
    <line x1="240" y1="418" x2="240" y2="482"/>
    <line x1="540" y1="218" x2="540" y2="282"/>
    <line x1="540" y1="418" x2="540" y2="482"/>
    <line x1="840" y1="218" x2="840" y2="282"/>
    <line x1="840" y1="418" x2="840" y2="482"/>
  </g>
  <!-- Component cards - Row 1 -->
  <!-- Card 1,1 - highlighted (blue) -->
  <rect x="112" y="80" rx="10" ry="10" width="256" height="130" fill="#00B4D8" fill-opacity="0.1" stroke="#00B4D8" stroke-width="2"/>
  <rect x="125" y="93" rx="4" ry="4" width="80" height="12" fill="#00B4D8" opacity="0.6"/>
  <rect x="125" y="115" rx="4" ry="4" width="180" height="8" fill="white" opacity="0.12"/>
  <rect x="125" y="131" rx="4" ry="4" width="140" height="8" fill="white" opacity="0.1"/>
  <rect x="125" y="155" rx="6" ry="6" width="68" height="28" fill="#00B4D8" opacity="0.7"/>
  <!-- Corner handles -->
  <rect x="108" y="76" rx="2" ry="2" width="8" height="8" fill="#00B4D8"/>
  <rect x="362" y="76" rx="2" ry="2" width="8" height="8" fill="#00B4D8"/>
  <rect x="108" y="204" rx="2" ry="2" width="8" height="8" fill="#00B4D8"/>
  <rect x="362" y="204" rx="2" ry="2" width="8" height="8" fill="#00B4D8"/>

  <!-- Card 1,2 -->
  <rect x="412" y="80" rx="10" ry="10" width="256" height="130" fill="white" fill-opacity="0.04" stroke="white" stroke-opacity="0.12" stroke-width="1.5"/>
  <rect x="425" y="93" rx="4" ry="4" width="60" height="12" fill="white" opacity="0.2"/>
  <rect x="425" y="115" rx="4" ry="4" width="200" height="8" fill="white" opacity="0.08"/>
  <rect x="425" y="131" rx="4" ry="4" width="160" height="8" fill="white" opacity="0.07"/>
  <rect x="425" y="155" rx="6" ry="6" width="50" height="28" fill="white" opacity="0.12"/>
  <rect x="485" y="155" rx="6" ry="6" width="50" height="28" fill="white" opacity="0.08"/>

  <!-- Card 1,3 -->
  <rect x="712" y="80" rx="10" ry="10" width="256" height="130" fill="white" fill-opacity="0.04" stroke="white" stroke-opacity="0.12" stroke-width="1.5"/>
  <rect x="725" y="93" rx="4" ry="4" width="70" height="12" fill="white" opacity="0.2"/>
  <rect x="725" y="115" rx="4" ry="4" width="180" height="8" fill="white" opacity="0.08"/>
  <rect x="725" y="131" rx="4" ry="4" width="220" height="8" fill="white" opacity="0.07"/>
  <rect x="725" y="155" rx="6" ry="6" width="80" height="28" fill="#FD7E41" opacity="0.55"/>

  <!-- Row 2 -->
  <!-- Card 2,1 -->
  <rect x="112" y="280" rx="10" ry="10" width="256" height="130" fill="white" fill-opacity="0.04" stroke="white" stroke-opacity="0.12" stroke-width="1.5"/>
  <rect x="125" y="293" rx="4" ry="4" width="100" height="12" fill="white" opacity="0.2"/>
  <rect x="125" y="315" rx="4" ry="4" width="200" height="8" fill="white" opacity="0.08"/>
  <rect x="125" y="331" rx="4" ry="4" width="155" height="8" fill="white" opacity="0.07"/>
  <circle cx="165" cy="370" r="18" fill="white" opacity="0.08" stroke="white" stroke-opacity="0.15" stroke-width="1"/>

  <!-- Card 2,2 - highlighted (orange) -->
  <rect x="412" y="280" rx="10" ry="10" width="256" height="130" fill="#FD7E41" fill-opacity="0.1" stroke="#FD7E41" stroke-width="2"/>
  <rect x="425" y="293" rx="4" ry="4" width="90" height="12" fill="#FD7E41" opacity="0.7"/>
  <rect x="425" y="315" rx="4" ry="4" width="190" height="8" fill="white" opacity="0.12"/>
  <rect x="425" y="331" rx="4" ry="4" width="150" height="8" fill="white" opacity="0.1"/>
  <rect x="425" y="355" rx="6" ry="6" width="72" height="28" fill="#FD7E41" opacity="0.8"/>
  <rect x="408" y="276" rx="2" ry="2" width="8" height="8" fill="#FD7E41"/>
  <rect x="660" y="276" rx="2" ry="2" width="8" height="8" fill="#FD7E41"/>
  <rect x="408" y="402" rx="2" ry="2" width="8" height="8" fill="#FD7E41"/>
  <rect x="660" y="402" rx="2" ry="2" width="8" height="8" fill="#FD7E41"/>

  <!-- Card 2,3 -->
  <rect x="712" y="280" rx="10" ry="10" width="256" height="130" fill="white" fill-opacity="0.04" stroke="white" stroke-opacity="0.12" stroke-width="1.5"/>
  <rect x="725" y="293" rx="4" ry="4" width="55" height="12" fill="white" opacity="0.2"/>
  <rect x="725" y="315" rx="4" ry="4" width="200" height="8" fill="white" opacity="0.08"/>
  <rect x="725" y="331" rx="4" ry="4" width="170" height="8" fill="white" opacity="0.07"/>
  <rect x="725" y="355" rx="4" ry="4" width="100" height="20" fill="white" opacity="0.07"/>
  <rect x="835" y="355" rx="4" ry="4" width="60" height="20" fill="white" opacity="0.05"/>

  <!-- Row 3 -->
  <!-- Card 3,1 -->
  <rect x="112" y="480" rx="10" ry="10" width="256" height="130" fill="white" fill-opacity="0.04" stroke="white" stroke-opacity="0.12" stroke-width="1.5"/>
  <rect x="125" y="493" rx="4" ry="4" width="75" height="12" fill="white" opacity="0.2"/>
  <rect x="125" y="515" rx="4" ry="4" width="210" height="8" fill="white" opacity="0.08"/>
  <rect x="125" y="531" rx="4" ry="4" width="170" height="8" fill="white" opacity="0.07"/>
  <rect x="125" y="551" rx="3" ry="3" width="220" height="4" fill="white" opacity="0.07"/>
  <rect x="125" y="563" rx="3" ry="3" width="180" height="4" fill="white" opacity="0.05"/>
  <rect x="125" y="575" rx="3" ry="3" width="200" height="4" fill="white" opacity="0.06"/>

  <!-- Card 3,2 -->
  <rect x="412" y="480" rx="10" ry="10" width="256" height="130" fill="white" fill-opacity="0.04" stroke="white" stroke-opacity="0.12" stroke-width="1.5"/>
  <rect x="425" y="493" rx="4" ry="4" width="88" height="12" fill="white" opacity="0.2"/>
  <rect x="425" y="515" rx="4" ry="4" width="160" height="8" fill="white" opacity="0.08"/>
  <rect x="425" y="531" rx="4" ry="4" width="190" height="8" fill="white" opacity="0.07"/>
  <rect x="425" y="555" rx="12" ry="12" width="38" height="24" fill="white" opacity="0.1"/>
  <rect x="471" y="555" rx="12" ry="12" width="38" height="24" fill="#00B4D8" opacity="0.25"/>
  <rect x="517" y="555" rx="12" ry="12" width="38" height="24" fill="white" opacity="0.06"/>
  <rect x="563" y="555" rx="12" ry="12" width="38" height="24" fill="white" opacity="0.06"/>

  <!-- Card 3,3 -->
  <rect x="712" y="480" rx="10" ry="10" width="256" height="130" fill="white" fill-opacity="0.04" stroke="white" stroke-opacity="0.12" stroke-width="1.5"/>
  <rect x="725" y="493" rx="4" ry="4" width="66" height="12" fill="white" opacity="0.2"/>
  <rect x="725" y="515" rx="4" ry="4" width="200" height="8" fill="white" opacity="0.08"/>
  <rect x="725" y="531" rx="4" ry="4" width="150" height="8" fill="white" opacity="0.07"/>
  <rect x="725" y="555" rx="6" ry="6" width="110" height="30" fill="#00B4D8" opacity="0.2" stroke="#00B4D8" stroke-opacity="0.4" stroke-width="1"/>

  <!-- Faded watermark -->
  <text x="1020" y="780" font-family="system-ui,-apple-system,sans-serif" font-size="90" font-weight="700" fill="white" text-anchor="middle" opacity="0.03" letter-spacing="8">SYSTEM</text>

  <!-- Category badge -->
  <rect x="62" y="712" rx="9" ry="9" width="138" height="44" fill="#FD7E41"/>
  <text x="131" y="739" font-family="system-ui,-apple-system,sans-serif" font-size="17" font-weight="600" fill="white" text-anchor="middle">UI Design</text>
</svg>
